<svg width="83" height="95" viewBox="0 0 83 95" fill="none" xmlns="http://www.w3.org/2000/svg">
<path fill-rule="evenodd" clip-rule="evenodd" d="M1.21393 89.997C22.0139 30.397 30.2139 12.1637 31.7139 10.497C35.2139 3.33034 44.2139 -6.70299 52.2139 10.497C60.2139 27.697 75.2139 70.6637 81.7139 89.997C83.0473 92.6637 81.8139 96.397 66.2139 89.997C60.8784 87.8081 56.5996 81.9695 53.2254 74.5136C49.555 69.8707 40.114 63.3706 31.7139 74.5136C28.1911 82.057 23.7391 87.925 18.2139 89.997C2.21393 95.9971 0.213929 92.497 1.21393 89.997ZM39.7377 48.4971C41.2998 40.8132 42.2594 33.5021 42.7139 27.9971C43.1206 33.4874 44.0142 40.8013 45.5025 48.4971C42.9334 44.0971 40.5889 46.6637 39.7377 48.4971Z" fill="#FA7A02" stroke="#FA7A02"/>
</svg>
